<?xml version="1.0" standalone="no"?>
<!DOCTYPE svg PUBLIC "-//W3C//DTD SVG 20010904//EN"
 "http://www.w3.org/TR/2001/REC-SVG-20010904/DTD/svg10.dtd">
<svg version="1.0" xmlns="http://www.w3.org/2000/svg"
 width="226.000000pt" height="226.000000pt" viewBox="0 0 226.000000 226.000000"
 preserveAspectRatio="xMidYMid meet">
<metadata>
Created by potrace 1.14, written by Peter Selinger 2001-2017
</metadata>
<g transform="translate(0.000000,226.000000) scale(0.100000,-0.100000)"
fill="#000000" stroke="none">
<path d="M549 2233 c-10 -11 -14 -46 -14 -113 0 -93 2 -101 37 -169 20 -40 34
-71 30 -69 -4 2 -40 23 -80 47 -83 50 -109 53 -197 22 -66 -23 -185 -88 -185
-101 0 -16 64 -59 146 -97 72 -35 86 -38 162 -37 45 0 82 -2 82 -6 0 -3 -28
-44 -63 -91 -34 -46 -79 -116 -99 -154 -34 -65 -40 -71 -88 -88 -147 -52 -172
-302 -50 -500 17 -27 41 -83 56 -125 46 -139 87 -195 256 -347 174 -157 419
-353 458 -367 34 -12 68 17 150 128 73 99 76 101 181 108 89 7 232 42 291 72
15 8 53 37 84 64 65 57 107 138 103 195 -3 25 5 43 37 81 126 152 211 328 245
506 19 99 14 270 -10 361 -52 198 -185 364 -361 451 -85 42 -124 53 -277 82
-19 4 -23 11 -23 42 0 50 -17 109 -34 115 -23 9 -36 -8 -55 -77 -10 -37 -21
-69 -23 -72 -3 -2 -47 -11 -99 -19 -52 -8 -114 -22 -139 -31 -25 -9 -94 -20
-155 -24 -63 -4 -127 -15 -149 -24 -38 -16 -40 -16 -63 6 -28 26 -88 146 -98
198 -11 50 -32 62 -56 33z m841 -78 c18 -110 -18 -244 -87 -324 -28 -33 -30
-33 -58 -18 -17 8 -39 24 -49 36 -19 21 -19 21 36 78 59 62 97 134 124 231 10
34 19 60 21 58 2 -2 8 -29 13 -61z m-762 -91 c12 -23 32 -55 46 -71 l25 -29
-36 -28 c-39 -32 -37 -33 -75 39 -23 43 -36 162 -23 212 7 27 8 25 24 -27 10
-30 27 -74 39 -96z m475 -94 c92 -29 98 -35 64 -66 -27 -23 -28 -26 -13 -49 9
-13 32 -36 51 -51 35 -26 35 -27 15 -41 -24 -17 -26 -62 -5 -103 21 -41 43
-50 119 -50 36 0 66 -3 66 -7 1 -5 5 -28 9 -51 8 -42 8 -44 -20 -54 -48 -17
-62 -51 -69 -178 -7 -102 -22 -171 -39 -170 -3 1 -15 15 -26 33 -11 17 -36 42
-55 55 -32 22 -41 23 -105 16 -152 -16 -273 -10 -390 20 -60 16 -113 32 -118
35 -12 12 50 64 121 101 93 49 95 59 48 205 -37 114 -66 244 -66 291 0 18 11
29 50 49 95 48 238 54 363 15z m422 -37 c57 -18 130 -54 160 -78 18 -14 17
-14 -14 1 -53 25 -141 54 -167 54 -13 0 -53 -18 -89 -40 -36 -22 -65 -38 -65
-36 0 1 14 31 31 65 35 70 32 69 144 34z m-1104 -73 c58 -16 104 -52 107 -84
l4 -29 -47 6 c-51 7 -225 63 -239 77 -14 14 46 39 94 40 25 0 61 -5 81 -10z
m1155 -61 c32 -6 70 -17 84 -24 l24 -13 -38 -16 c-41 -17 -152 -51 -203 -61
-34 -7 -113 10 -113 25 0 16 71 63 123 81 63 22 51 21 123 8z m242 -66 c83
-107 121 -215 129 -363 10 -181 -38 -349 -146 -518 l-53 -83 -67 69 c-36 37
-93 85 -126 106 -33 21 -68 44 -78 50 -15 10 -18 35 -21 251 -3 206 -13 323
-31 385 -4 12 8 15 63 15 77 1 193 44 252 95 19 16 38 29 42 30 3 0 20 -17 36
-37z m-1114 -73 c24 -29 43 -105 33 -132 -3 -7 -6 3 -6 22 -1 43 -25 80 -52
80 -15 0 -19 -7 -19 -34 0 -33 -21 -66 -41 -66 -14 0 -10 -43 7 -68 8 -12 26
-22 39 -22 13 0 31 10 39 22 9 12 16 17 16 11 0 -16 -49 -53 -70 -53 -38 0
-80 70 -80 134 0 115 76 175 134 106z m-24 -175 c0 -8 -4 -15 -10 -15 -5 0
-10 7 -10 15 0 8 5 15 10 15 6 0 10 -7 10 -15z m-215 -134 c22 -10 54 -30 71
-44 21 -18 68 -36 155 -58 132 -34 244 -41 405 -24 67 7 71 6 103 -21 46 -39
91 -136 91 -197 0 -50 -20 -109 -47 -139 -27 -30 -34 -21 -27 32 4 33 3 50 -4
50 -6 0 -14 -5 -18 -11 -13 -21 -113 -78 -175 -100 -82 -28 -259 -31 -362 -6
-71 18 -92 15 -83 -10 5 -12 -2 -13 -42 -7 -26 4 -76 15 -111 26 -54 17 -75
30 -126 81 -49 50 -66 75 -83 126 -38 112 -24 234 31 279 49 41 158 52 222 23z
m1026 -407 c33 -19 59 -39 59 -43 0 -13 -101 -42 -168 -48 -58 -6 -62 -5 -56
13 6 16 92 111 103 113 2 1 30 -15 62 -35z m-295 -50 c-3 -9 -6 -22 -6 -29 0
-33 -218 -105 -316 -105 -29 0 -65 5 -81 12 -25 10 -18 12 75 24 150 19 267
57 301 98 17 21 35 21 27 0z m313 -48 c-11 -23 -46 -37 -93 -35 -13 0 1 11 39
29 33 16 61 29 62 29 2 1 -2 -10 -8 -23z m198 -93 c58 -83 77 -143 61 -201
-11 -39 -61 -92 -109 -117 l-28 -15 25 48 c27 52 24 82 -12 113 -48 41 -165
53 -204 21 l-23 -19 27 -45 c31 -54 33 -80 5 -124 -37 -60 -73 -74 -190 -74
l-103 0 34 35 c50 51 27 43 -31 -12 l-50 -46 -32 29 c-52 49 -66 57 -115 70
l-47 12 51 50 c28 27 71 57 95 65 24 9 71 26 104 38 71 26 115 66 115 104 0
24 3 27 28 21 l27 -6 -27 15 c-28 16 -37 35 -17 35 6 0 38 -7 71 -16 33 -8 62
-13 65 -11 2 3 -26 13 -62 22 -36 10 -65 21 -65 25 0 4 28 10 63 13 34 4 78 9
97 13 35 6 35 5 53 -45 31 -90 75 -86 84 7 6 67 10 74 35 70 15 -2 41 -29 75
-75z m-1272 -34 c47 -17 96 -23 225 -28 165 -7 165 -7 245 -46 132 -63 219
-56 307 23 26 23 38 29 38 19 0 -27 -57 -64 -138 -91 -82 -28 -153 -67 -185
-104 -10 -11 -29 -46 -42 -77 -27 -69 -42 -57 -19 15 16 49 16 53 -2 77 -10
14 -45 35 -77 48 -31 13 -76 40 -99 59 -49 43 -84 50 -193 44 l-82 -6 -21 44
c-12 24 -21 44 -19 44 1 0 30 -9 62 -21z m1179 -339 c-31 -31 -224 -74 -301
-68 -26 2 -5 7 62 15 56 7 132 23 170 37 84 29 81 28 69 16z m-655 -188 c41
-80 61 -78 105 11 14 29 35 63 46 77 12 14 4 -10 -19 -57 -23 -46 -51 -87 -63
-94 -20 -11 -26 -8 -58 29 -38 42 -60 99 -59 148 0 22 4 16 14 -23 8 -29 23
-70 34 -91z"/>
<path d="M981 1654 c-51 -36 -75 -137 -47 -199 13 -29 14 -27 9 26 -6 67 9
123 45 162 29 31 27 34 -7 11z"/>
<path d="M1116 1618 c10 -18 21 -62 24 -98 l7 -65 2 58 c1 40 -5 70 -19 97
-11 22 -23 40 -25 40 -3 0 2 -15 11 -32z"/>
<path d="M1028 1604 c-3 -3 -4 -22 -1 -43 6 -42 -10 -81 -33 -81 -11 0 -13 -7
-8 -27 15 -61 42 -88 78 -79 46 12 71 111 45 185 -14 40 -61 66 -81 45z m42
-174 c0 -11 -4 -20 -9 -20 -11 0 -22 26 -14 34 12 12 23 5 23 -14z"/>
<path d="M316 1275 c-38 -20 -55 -44 -56 -77 0 -43 31 -58 111 -51 58 5 70 3
75 -11 12 -31 24 -16 24 29 0 102 -71 153 -154 110z"/>
<path d="M995 1161 c-47 -20 -60 -48 -62 -140 l-2 -86 13 51 c7 29 22 67 34
85 l22 34 0 -27 c0 -14 12 -40 26 -57 46 -54 124 -33 124 34 0 34 -38 85 -75
101 -38 16 -51 16 -80 5z"/>
</g>
</svg>
