<svg id="Layer_1" data-name="Layer 1" xmlns="http://www.w3.org/2000/svg" viewBox="0 0 1080 1080"><defs><style>.cls-1{fill:#010101;}</style></defs><path class="cls-1" d="M548.14,410.92c-133,30.51-112.48-106.19-20.38-148.67,39.06-14.65,139.63,3.82,101.94,60.6-5.41,17,9.54,34,9.31,51.78-1.14,23.57-20.25,57.2-48,45.6C581.26,409.29,562,410.4,548.14,410.92Z"/><path class="cls-1" d="M578.41,517.75c27.46,59.88,89.87,108.9,115.92,19.33,54.69-12.56,85.21-57.18,46.73-92a44.23,44.23,0,0,0-40.47-10c-35.25,8.86-69.7,28.65-105.58,36.3C571.62,475.23,567.82,499.72,578.41,517.75Z"/><path class="cls-1" d="M474.14,582.22c-36.11,41-160.46,9.23-153.28-51.16C327,495,359.41,480.52,383.57,459c5.25-9.57-1.68-25.36,12.5-28.94,24.28-22.52,151.65,10.49,114.66,50.91C462,494.33,506.26,553.74,474.14,582.22Z"/><path class="cls-1" d="M324.84,442.73c9.28-22.79-16.59-56.81-38.1-62.82-.37-.1-.73-.22-1.1-.35-42.47-16-121.11,38.61-62.73,63.52a15.66,15.66,0,0,0,11.33.35c47.55-16.72,57.82,17.34,82.14,7.55A15.19,15.19,0,0,0,324.84,442.73Z"/><path class="cls-1" d="M547.57,569.47c-38.3-28.35-18.85,9.5-16.91,33a18.35,18.35,0,0,1-9,17.21c-29.27,17.45-37.47,28.85-19,57.54A18.72,18.72,0,0,1,505,691.88c-7.21,29.28,25,67.85,55.43,51.32a18.87,18.87,0,0,1,4.48-1.72c24.08-6,16.64-35.87,37.58-45.81,45-7.82,44.79-64.9,12.49-88.37-21.18-12.5-48-12.53-63.55-33.9A18.3,18.3,0,0,0,547.57,569.47Z"/><path class="cls-1" d="M718.21,608.11c-13.67,32.28,11.3,37.52-26.65,72.35a17,17,0,0,0-4.39,19c14.3,34.17,107.13,53.84,131.8,36.33,45.66-39.42,10.87-65.12,10.75-103.61a16.84,16.84,0,0,1,.81-5.32c7-21.52,5.41-49.75-7.26-69.31a19.8,19.8,0,0,0-28.37-5.15c-21.82,16.1-28.06,32.62-66.11,45.93A17.81,17.81,0,0,0,718.21,608.11Z"/><path class="cls-1" d="M832.36,514.75C840.61,550,905,565,884.24,514.13c23-32-6.46-63.53-36-77.5-28.09-16-73.8,22.34-47.1,49C808.12,499.2,827,497.79,832.36,514.75Z"/><path class="cls-1" d="M713.19,387.65c51.88-4.51,103.47,50.79,118.83-30.57-7.11-26.72-35-38-52.85-55.86-10.4-31.35-66.64-64.84-82.41-21.57-2.67,14.86,12.18,26.43,15,40.44C704.83,341.5,680.83,374.33,713.19,387.65Z"/><path class="cls-1" d="M834.88,268C911.56,404.24,984,141.4,865.16,176.33a17.27,17.27,0,0,0-3.23,1.36c-13.48,7.16-19-16.26-33.65-17.08a18.31,18.31,0,0,1-3.9-.53c-39.78-11-71.28,31.29-40.19,63,8.76,6.67,16.79,13,20.76,22.54a17.67,17.67,0,0,0,14.17,10.55c5.61.7,11.14,1.84,15,10.29C834.38,267,834.62,267.49,834.88,268Z"/><path class="cls-1" d="M601.12,135.34c30,28.72-39.79,48-.08,81.16.56.46,1.09,1,1.6,1.48,14.52,14.54,30.76-9.57,46.35,2a19.81,19.81,0,0,0,3.27,1.91c27.47,13.13,52.61-7.32,56.94-34.26A18.87,18.87,0,0,1,718.78,174c78.3-42.32,40.56-115.63-45.87-103.28a18.34,18.34,0,0,1-6-.12c-46.06-8.77-101.49,5.84-69.05,60.6A19.43,19.43,0,0,0,601.12,135.34Z"/><path class="cls-1" d="M425.49,166.23C397.87,185.15,421.3,211,424,234.5a19.39,19.39,0,0,1-4.21,14c-7.32,9.46-5.73,19.62.36,27.87,15.22,20.61,47.29,16.29,57.53-7.19,4-9.12,7.59-18.56,13.76-26a19.21,19.21,0,0,1,9.46-6.07c73.56-21.39,41.78-63.31-20.26-61.21a19.15,19.15,0,0,1-11.13-3.17C456,163.86,441.24,154.06,425.49,166.23Z"/><path class="cls-1" d="M415.15,332.88c39.11,50.1-56.7,74.06-70.62,19.29-29.26-26.57-92.13-17.29-92.39-71.58-3-57.17,87-84.56,117.14-36.14,26.71,44.43-25.65,67,39.61,84.29A11.82,11.82,0,0,1,415.15,332.88Z"/><path class="cls-1" d="M163,353.91c-62.79,40.94-128-52.65-69.73-99.2a8.68,8.68,0,0,1,.79-.56c16.24-10.33,35.8-.15,53.14,2a7.29,7.29,0,0,0,1.32.05c25.34-1.21,50.7-.33,62.86,25.2a8,8,0,0,0,2.21,2.82c19.22,15.38,38.88,34.48,28.82,60.61a7.62,7.62,0,0,1-2.79,3.57c-21.41,14.77-52-5.06-75.44,4.91A7.47,7.47,0,0,0,163,353.91Z"/><path class="cls-1" d="M165.58,417.63c10.59,60.13-73.72,57.1-104.29,28.21C29.31,376,141.16,367,165.58,417.63Z"/><path class="cls-1" d="M233,547.71a28.13,28.13,0,0,0,23.93-35.84c-3.8-12.92-13.69-25.32-25.12-31-12.81-6.22-27.68.68-41.45,4.33-34.71,9.09-79.94-3.12-107.54,24.15a27.25,27.25,0,0,0-6.21,9c-10.51,26.1,28.29,52.84,52.54,53.09C165.56,572.71,198.29,551.5,233,547.71Z"/><path class="cls-1" d="M236,598.52c-55.2,23.11-.39,95.09,34.22,44,9.79-22.69,51.15,6.25,53.73-21.79C329.08,570.75,263.49,576.08,236,598.52Z"/><path class="cls-1" d="M319.55,799.22c-78-16.34-43.9-104,17.7-114.41a26.07,26.07,0,0,0,13.07-6.25c22.85-20.55,23.27-50,68.21-28.89,14.29,7.53,19.43,23,15.49,37.43a25.81,25.81,0,0,0,.13,14c4.9,16.72,20,33,9.65,50.37-6.77,11.31-20,12.79-31.57,15.75C380.4,776.88,356,810.78,319.55,799.22Z"/><path class="cls-1" d="M229.28,750.93c12.17,32.38-30.07,56-58.36,46.37a13,13,0,0,1-6.29-4.58C156.87,782.16,154,767.88,142.25,760a13.38,13.38,0,0,1-4.25-4.54c-13.11-23.6,12.81-27.11,5.46-66.25a12.72,12.72,0,0,1,6.86-13.64c21.62-11,58-6.17,61.54,21.25,2.17,27.38-13.28,31,12.59,48.15A12.6,12.6,0,0,1,229.28,750.93Z"/><path class="cls-1" d="M98,740.42c-8.47,36-62.76,17.24-75.17-6.08C-1.71,675.46,53.22,560.8,125.13,607.59c23.58,14.73,18.79,58.79-6.56,69.64C100,693.25,101.82,718,98,740.42Z"/><path class="cls-1" d="M226.09,905.07c6.65,7.1,6.22,14.13,1.55,19.19a20.34,20.34,0,0,0-3.3,22c2.36,5.34,3.39,10.61-3.54,15.64-30.7,22.72-78.32,13.09-97.86-19.12a20.66,20.66,0,0,0-8.62-7.92c-52.53-25.67-72.13-112.12-4.84-133.5,45.77-7.74,45,48.62,63,76.94a19.59,19.59,0,0,0,6.11,6.18C193.08,893.51,213.28,891.4,226.09,905.07Z"/><path class="cls-1" d="M272.1,899.88c8.42,14.8,50.73,39.65,56.75,14.35-3.33-11.48,3.92-19.15,10.53-27.72,8.22-19,3.07-52.86-20.88-57C242.28,763.37,173.41,868.75,272.1,899.88Z"/><path class="cls-1" d="M487.28,887.19c59.85-8.87,19.19-60,16.12-95.44a17.82,17.82,0,0,0-8.2-13.9c-13.86-8.37-33.52,6.19-43.05,20.59A18.55,18.55,0,0,1,442,806c-105.59,31.31-34.77,83.83,43.12,81.35A17,17,0,0,0,487.28,887.19Z"/><path class="cls-1" d="M644,880c47.74,20.35,80.6-83.15,43.21-106.2-40.4-29.32-51.13-.74-87.4,8.85-38.79,5-39.44,37.52-24.53,66.69C588.4,869.26,622.69,874.84,644,880Z"/><path class="cls-1" d="M646.49,1035.24c38.51,13.32,94.85,9,113.14-33.11,8.72-45.74-71.34-74.87-109-71.06C589,949,577.72,1015.15,646.49,1035.24Z"/><path class="cls-1" d="M522.66,1008.66c-20.58,19.42-56.22,39.27-79.65,14.74-20.42-18.62-58.12-37.37-36.43-69.47,13.82-47.63,62.69-20.72,96.75-35.31,83.44-22.83,39.28,46.08,22.67,85.25A14.28,14.28,0,0,1,522.66,1008.66Z"/><path class="cls-1" d="M370,969.21c62.62,54.9-47.23,90.49-93.09,76-43,14.89-59.81-26.83-30.23-55.84C283.07,959.8,326.84,946.12,370,969.21Z"/><path class="cls-1" d="M825.18,1015.26c10.94,47.13,70.69,19.58,104.59,21.93,29.3.91,35.87-37.89,28.2-59.65-11.4-14-33.1-6.25-46.2-14.55-11.29-32.29-47.43-12.23-71.4-11.8C798.76,942.91,816.43,993.73,825.18,1015.26Z"/><path class="cls-1" d="M809.24,932.34c36.83-.18,46.92-29.29,70.39-24.62,84.7,58.52,90.1-9.32,65.2-78.6,2.37-42.75-60-68.32-95.9-58.54-21.55,6-23.48,39.92-46.16,41.1-92.88,4.92-60.47,83.8-6.59,117A24.81,24.81,0,0,0,809.24,932.34Z"/><path class="cls-1" d="M908.84,733.18c74.73,89.63,128.5.12,122.65-84.14a15.85,15.85,0,0,0-1.23-5.13c-11.79-27.43-47.25-24.64-67.75-40.81a15.25,15.25,0,0,1-3-3.12c-9.08-13-26.4-16.51-40.38-10.17a16.23,16.23,0,0,0-8.29,8.48c-6.35,15.23-5.74,32-3.42,48.12a15.83,15.83,0,0,1-.58,7.14c-8,24.81-11.76,51.27-.19,76.23A15.38,15.38,0,0,0,908.84,733.18Z"/><path class="cls-1" d="M972.59,565.72c43.19,34.09,73.45-29.5,54.13-65C983,452.13,932.64,530.68,972.59,565.72Z"/><path class="cls-1" d="M920.61,475.45c-28.82-7.56-44.42-51.82-47-80.4a20.74,20.74,0,0,1,1-8.39C885.35,354.43,927,340.2,952,364a36.25,36.25,0,0,0,16.08,9.07c19.4,4.87,42.65,5.66,44.31,31.54,2,16-6.82,46.33-27.22,43.3C955.84,435.24,945.13,471.47,920.61,475.45Z"/><path class="cls-1" d="M944.25,304.82c-6.22,24.88,15.13,42.06,35.47,52.52a15.24,15.24,0,0,0,12.21.77c18.71-6.83,41-17,58-29.71a29.21,29.21,0,0,0,6.6-40c-27.89-40.4-113.41-55.9-111.86,12.44A14.65,14.65,0,0,1,944.25,304.82Z"/><path class="cls-1" d="M955.69,185.87c-1.77,37,63.29,46,84.6,25.6C1072.9,149.8,959.17,113.78,955.69,185.87Z"/><path class="cls-1" d="M963.43,124.8c25.44,21,59.8-23.28,60.86-49.89a13.14,13.14,0,0,0-1.81-7.24C1009.25,45.51,972.37,31.91,957,56.56a12.48,12.48,0,0,0-1.25,10.21c7.36,24.34-2,33.37,3.79,52.06A12.46,12.46,0,0,0,963.43,124.8Z"/><path class="cls-1" d="M922.12,129.57c-4.25,2.68-2.33,5.31.54,7.76a12.13,12.13,0,0,1,3.74,13.12c-3.79,10.81-20.69,7.38-33.8-1.34a65.16,65.16,0,0,0-39-11.22c-10,.46-19.69-3.56-28.74-11.6a12.36,12.36,0,0,0-7.27-3.13c-10.5-.8-19-7.55-22.43-18.35a10.66,10.66,0,0,1-.46-2.38C791.49,63.87,846.91,82.18,870,79.62c17.77-2.44,42.84-14.74,55.25,5.47C934.7,100.28,943,120,922.12,129.57Z"/><path class="cls-1" d="M357,168.12c-8.52,41.28-76.21,18.26-101.63-4.3a19.34,19.34,0,0,1-6.2-11.24,186,186,0,0,1-2-40.85,19,19,0,0,1,6.49-13.4c25.14-21.69,66.33-11.6,97.9-10.29a18.54,18.54,0,0,1,14.21,7.43c5.26,7.22,7.36,17.62,6.41,26.85A18.67,18.67,0,0,1,366,134c-8.24,7.62-9.25,17.58-8.68,29.36A19.15,19.15,0,0,1,357,168.12Z"/><path class="cls-1" d="M176.08,219.72c-57.72,12.9-144.8-36.16-63-75.69a12.55,12.55,0,0,1,3-1c23.93-4.79,42.39.71,57.29-19.61a12.54,12.54,0,0,1,11.15-5.26c28.05,2.53,29.06,39.51,24.13,67.44A42.58,42.58,0,0,1,176.08,219.72Z"/><path class="cls-1" d="M122,125.9a11.45,11.45,0,0,1-4.44.87c-25.25.28-80.43,9.1-47.3-32.82C81.6,79.47,97.53,83,111.71,83.07a13.11,13.11,0,0,0,4.6-.81C142.52,72.56,140.67,118,122,125.9Z"/><path class="cls-1" d="M420.72,112.39c16.6,23.57,41.42,15.17,61.58,2.79,14.46-3,30.61,10.72,44.32,2.12C580.71,50.55,391,40.48,420.72,112.39Z"/><path class="cls-1" d="M81.74,955.79a18.08,18.08,0,0,1,12.66-2.25c19.39,4,34.13,27.5,46.16,41.73,46.83,61-122.41,93.76-89,24.6a18.16,18.16,0,0,0,1.84-8.78C52.42,990.08,63.46,966.44,81.74,955.79Z"/><path class="cls-1" d="M57.59,885.47c7.93,19.22,7.5,43.84-7.58,58.15-1.47,1.39-3.22,2.73-5.24,2.82-2.77.12-5-2.07-6.89-4.13q-6.51-7.23-12.4-15c-3.33-4.37-6.55-9-8.35-14.14-2-5.86-2.14-12.17-2.23-18.37l-.69-45.26c-.2-13.6,15.21-26.4,24.81-12,4,6,4,14.08,6.15,20.71C48.26,867.74,53.79,876.25,57.59,885.47Z"/><path class="cls-1" d="M38,599.55c-2.86.49-6,.63-8.42-1-1.95-1.38-2.95-3.72-3.78-6-11.14-29.74-10.64-62.39-10-94.14a31.85,31.85,0,0,1,1.2-9.64c2.09-6.08,7.64-10.26,13.18-13.54,1.84-1.08,3.91-2.15,6-1.79a7.92,7.92,0,0,1,4,2.36C49.12,484.36,49.94,498,52.75,510c2.76,11.84,7.91,23,11.68,34.54,3.29,10.09,7.91,26.39,3.23,36.73C63.16,591.24,48,597.86,38,599.55Z"/><path class="cls-1" d="M32.62,374.17c-6.85-3.83-11-11.15-13.81-18.47C12.37,339,11,320.82,10.57,302.93a514.69,514.69,0,0,1,4.37-80.41c.76-5.62,1.65-11.36,4.38-16.32S27,197.14,32.71,197c6.2-.14,11.7,4.52,14.46,10.08s3.33,11.9,3.89,18.08Q55.74,276.71,63.22,328c1.55,10.64,7.19,26,.7,35.86C57.59,373.41,43.36,380.16,32.62,374.17Z"/><path class="cls-1" d="M27.11,157.91c.45,4.16,1.28,8.39,3.52,11.92s6.16,6.24,10.34,6,7.91-3.36,9.89-7.12,2.59-8.08,3.1-12.3c1-8.49,1.7-17.56-2.26-25.14s-13-10.27-19.51-4.19C25,133.9,26.15,149.08,27.11,157.91Z"/><path class="cls-1" d="M22.78,79.91a10,10,0,0,0,2.74,4.14A11.45,11.45,0,0,0,30.93,86l19.25,3.31c4.3.74,9,1.43,12.83-.6,5.39-2.84,7-9.66,8-15.66A43.89,43.89,0,0,0,72,64.61c-.3-14.9-19.39-31.43-34.59-27.9C20.32,40.66,17.24,66.53,22.78,79.91Z"/><path class="cls-1" d="M115.38,63.27c9.37,4,19.83,4.43,30,4.51s20.56-.11,30.31,2.82c4.46,1.34,8.74,3.32,13.32,4.15C201.66,77,215.37,69.13,219.7,57a20.73,20.73,0,0,0,.85-12c-1.33-5.16-5.09-9.39-9.37-12.57C200.64,24.63,187.05,22.3,174,21.39a218.45,218.45,0,0,0-49.34,2.16C115.54,25,100.31,29.42,97.74,40,95.27,50.13,107.31,59.82,115.38,63.27Z"/><path class="cls-1" d="M250.57,55.49c2.71,3,6.65,4.58,10,6.87,4.66,3.17,8.34,7.88,13.58,9.93,3.84,1.51,8.09,1.41,12.2,1.3l80.45-2.27,24.69-.7c5.56-.15,11.28-.34,16.38-2.56s9.51-7,9.6-12.53c.12-7.77-7.65-13.2-14.92-15.93-13.39-5-27.91-5.91-42.18-6.76l-67.46-4C282.66,28.21,231.09,33.63,250.57,55.49Z"/><path class="cls-1" d="M222,224.94a18.37,18.37,0,0,0,3.87,6.67c3.66,4.34,8.53,7.84,14.08,9s11.8-.18,15.75-4.26a18.48,18.48,0,0,0,3.93-6.52c5.39-14.65-5-26.07-18.34-30.58C227.23,194.55,218.43,212.71,222,224.94Z"/><path class="cls-1" d="M541.93,57.08c2.13,4.84,4.48,9.93,8.87,12.86,4.79,3.2,11,3.15,16.74,3,5.23-.16,10.5-.32,15.59-1.51,4-1,8.28-2.88,10-6.66,2.46-5.43-1.39-11.5-5.15-16.12S580.26,39.42,576.24,35a19.83,19.83,0,0,0-5.45-4.69c-3.11-1.57-6.79-1.43-10.25-1C541.86,31.35,533.44,37.87,541.93,57.08Z"/><path class="cls-1" d="M687.22,42.24c-3.66,6.07.28,14.43,6.43,17.95s13.64,3.51,20.72,3.24c25.34-1,51.47-3.81,75.45,4.43,5.07,1.74,10,4,15.38,4.59s11.27-.78,14.52-5c2-2.65,2.75-6.05,3.42-9.32s1.31-6.45.78-9.65c-1-6.24-6.45-10.94-12.27-13.42s-12.19-3.27-18.28-5c-11.2-3.15-21.25-9.36-31.79-14.29S739.27,7.08,727.87,9.4c-9.62,2-17.75,8.4-22.65,16.78-2,3.4-2.67,7.53-6,10C695.31,39.06,690.23,37.23,687.22,42.24Z"/><path class="cls-1" d="M964.73,810.83a46.86,46.86,0,0,0-2.65,18.37c.82,25.91,15,49.18,23.84,73.57,5.47,15.2,8.88,31.05,12.62,46.77,1.1,4.63,2.27,9.36,4.85,13.37s6.84,7.25,11.6,7.32c5.46.08,10.06-3.79,14.11-7.44l20.39-18.37a39.11,39.11,0,0,0,6.7-7.15c2.65-4,3.74-8.76,5-13.36,2.78-10,6.67-19.6,9-29.66a102.94,102.94,0,0,0-3.59-58.91c-8.59-23.24-26.36-39.91-50-47.44C998.32,782.07,971.82,792.44,964.73,810.83Z"/><path class="cls-1" d="M970.86,1039.41c-.44,4.29-.61,9.18,2.38,12.29,1.72,1.79,4.18,2.63,6.58,3.26a62.4,62.4,0,0,0,32-.13c6.43-1.74,13.38-4.5,19.44-1.74,1.41.64,2.76,1.57,4.31,1.58,3.55,0,5.08-4.46,5.47-8a141.42,141.42,0,0,0-1.71-44.08,24.08,24.08,0,0,0-2.79-8.05c-7.19-11.49-30.34-9.92-40.61-3.59C978.27,1001.83,972.83,1019.88,970.86,1039.41Z"/><path class="cls-1" d="M771.74,1036.52c-11.47,1.34-22.07,6.78-31.64,13.25-3.29,2.22-6.82,5.19-6.81,9.17,0,3,2.13,5.58,4.72,7a24,24,0,0,0,8.5,2.32,308.71,308.71,0,0,0,41.76,2.93c11.24,0,23.07-8.83,17.43-21.35C800.61,1038.55,782.45,1035.26,771.74,1036.52Z"/><path class="cls-1" d="M526.3,1028.42c-6.4,8.83-10.85,19.49-10.36,30.39a9.48,9.48,0,0,0,1.39,5.18c1.84,2.57,5.42,3,8.58,3.25q47.93,3.43,96,5.15c2.44.08,5.31,0,6.67-2.06a6.39,6.39,0,0,0,.64-4.36c-1.58-12.53-12.21-21.58-21.32-30.31a205.09,205.09,0,0,1-20.45-22.94c-4.25-5.52-8.82-14.2-15.92-16.52C555.74,991.08,534.16,1017.57,526.3,1028.42Z"/><path class="cls-1" d="M372.87,1073.11a10,10,0,0,1-3.55-.88,8,8,0,0,1-2.9-2.94c-3.2-5.11-3.28-11.5-3.27-17.53a13.82,13.82,0,0,1,.5-4.4,12.14,12.14,0,0,1,3.17-4.43,59.26,59.26,0,0,1,43.27-17c3,.1,6.08.47,8.64,2s4.16,3.84,5.74,6.21c3.16,4.75,10.23,13.36,7.54,19.52-2,4.48-11.49,8.7-15.5,10.86A74.83,74.83,0,0,1,372.87,1073.11Z"/><path class="cls-1" d="M207,1046.28c-2.47,6-5.79,11.83-10.8,16-9.89,8.18-24,8.13-36.82,7.68-3.24-.11-6.89-.42-9-2.91-1.32-1.6-1.69-3.77-1.89-5.84a54,54,0,0,1,3.43-24.61,92.23,92.23,0,0,1,9.08-16.63c3.79-5.8,8-11.72,14.24-14.79,6.5-3.22,14.13-2.82,21.37-2.36,2.12.13,4.35.31,6.11,1.51a10.72,10.72,0,0,1,3,3.79C212.74,1020.6,212.39,1033.18,207,1046.28Z"/><path class="cls-1" d="M1027.67,354.66a19.45,19.45,0,0,0-1.29,7.54,98.55,98.55,0,0,0,8.55,42.47c1.37,3.07,3.1,6.26,6.09,7.77a14.66,14.66,0,0,0,6.6,1.15c8,0,16.87-1.64,21.58-8.08,3.66-5,3.91-11.69,3.18-17.83a136.37,136.37,0,0,0-3.48-17c-1.41-5.66-2.93-11.55-6.77-16C1054.15,345.62,1034,340.58,1027.67,354.66Z"/><path class="cls-1" d="M1029.13,447.15a19,19,0,0,0-5.29,6.16c-1.86,3.89-1.38,8.48-.42,12.69a60.61,60.61,0,0,0,4.34,12.56c1.88,4,4.34,7.9,8.16,10.05a19.19,19.19,0,0,0,6.13,2c5.37.93,11.14.54,15.89-2.12s8.28-7.86,8-13.3a24.67,24.67,0,0,0-1.72-6.78c-2.78-7.75-5.25-23.81-12.31-28.83C1045,434.69,1034.34,442.85,1029.13,447.15Z"/><path class="cls-1" d="M1034.2,616.88a14.22,14.22,0,0,0,5.45,4.69,15.59,15.59,0,0,0,6.56.77c5-.17,10-.73,14.59-2.63s8.73-5.29,10.65-9.88c1.8-4.3,1.49-9.17,1.08-13.82-1.4-15.78-7.1-33.41-25.51-35.54-15.85-1.84-22.42,17.73-22.07,30.4A44.67,44.67,0,0,0,1034.2,616.88Z"/><path class="cls-1" d="M1041.58,716.89c-4.66,11.7-9.39,24.59-5.52,36.58a27.71,27.71,0,0,0,15.94,17c3.19,1.27,6.91,1.89,10,.36,4.69-2.33,5.85-8.37,6.45-13.57l3.82-33.13c.89-7.68,1.76-15.55-.08-23.06-1.68-6.85-8.91-19.58-17.43-13.45C1047.77,692.68,1044.68,709.12,1041.58,716.89Z"/></svg>